<?xml version="1.0" encoding="UTF-8"?>
<svg version="1.1" xmlns="http://www.w3.org/2000/svg" width="32" height="32">
<path d="M0 0 C10.56 0 21.12 0 32 0 C32 10.56 32 21.12 32 32 C21.44 32 10.88 32 0 32 C0 21.44 0 10.88 0 0 Z " fill="#0356AA" transform="translate(0,0)"/>
<path d="M0 0 C0.639375 0.185625 1.27875 0.37125 1.9375 0.5625 C2.9584375 0.7790625 2.9584375 0.7790625 4 1 C4.33 0.67 4.66 0.34 5 0 C7.67058851 -0.14115161 10.32432238 -0.04247107 13 0 C13.042721 1.66611905 13.04063832 3.33382885 13 5 C10.95301586 7.04698414 6.69588759 6.70045693 4 7 C4 9.97 4 12.94 4 16 C6.64 16 9.28 16 12 16 C12 15.34 12 14.68 12 14 C12.66 14 13.32 14 14 14 C13.42655063 16.86724686 13.1385485 17.8614515 11 20 C8.72265625 20.3359375 8.72265625 20.3359375 6.0625 20.375 C4.74958984 20.41753906 4.74958984 20.41753906 3.41015625 20.4609375 C1 20 1 20 -0.796875 18.1953125 C-2.53723775 15.01971553 -2.31808364 12.56253672 -2 9 C-1.36525925 7.65117592 -0.70151152 6.3153341 0 5 C0.16750414 2.33290931 0.16750414 2.33290931 0 0 Z " fill="#DEE9F4" transform="translate(10,6)"/>
</svg>
